<?xml version="1.0" encoding="UTF-8" ?>
<svg version="1.1" width="320" height="320" xmlns="http://www.w3.org/2000/svg" shape-rendering="crispEdges">
<rect x="250" y="60" width="20" height="10" fill="#1C1618" />
<rect x="240" y="70" width="10" height="10" fill="#1C1618" />
<rect x="250" y="70" width="20" height="10" fill="#FBF236" />
<rect x="270" y="70" width="10" height="40" fill="#1C1618" />
<rect x="230" y="80" width="10" height="10" fill="#1C1618" />
<rect x="240" y="80" width="10" height="10" fill="#FBF236" />
<rect x="250" y="80" width="10" height="10" fill="#D88038" />
<rect x="260" y="80" width="10" height="30" fill="#FBF236" />
<rect x="220" y="90" width="10" height="10" fill="#1C1618" />
<rect x="230" y="90" width="10" height="10" fill="#FBF236" />
<rect x="240" y="90" width="10" height="10" fill="#D88038" />
<rect x="250" y="90" width="10" height="20" fill="#1C1618" />
<rect x="210" y="100" width="10" height="10" fill="#1C1618" />
<rect x="220" y="100" width="10" height="10" fill="#FBF236" />
<rect x="230" y="100" width="10" height="10" fill="#D88038" />
<rect x="240" y="100" width="10" height="10" fill="#1C1618" />
<rect x="110" y="110" width="70" height="10" fill="#1C1618" />
<rect x="200" y="110" width="10" height="10" fill="#1C1618" />
<rect x="210" y="110" width="10" height="10" fill="#FBF236" />
<rect x="220" y="110" width="10" height="10" fill="#D88038" />
<rect x="230" y="110" width="10" height="10" fill="#1C1618" />
<rect x="260" y="110" width="10" height="20" fill="#1C1618" />
<rect x="110" y="120" width="10" height="30" fill="#1C1618" />
<rect x="120" y="120" width="30" height="20" fill="#FBF236" />
<rect x="150" y="120" width="10" height="30" fill="#1C1618" />
<rect x="160" y="120" width="10" height="20" fill="#D88038" />
<rect x="170" y="120" width="10" height="60" fill="#1C1618" />
<rect x="190" y="120" width="10" height="10" fill="#1C1618" />
<rect x="200" y="120" width="10" height="10" fill="#FBF236" />
<rect x="210" y="120" width="10" height="10" fill="#D88038" />
<rect x="220" y="120" width="10" height="10" fill="#1C1618" />
<rect x="180" y="130" width="10" height="20" fill="#1C1618" />
<rect x="190" y="130" width="10" height="10" fill="#FBF236" />
<rect x="200" y="130" width="10" height="10" fill="#D88038" />
<rect x="210" y="130" width="10" height="50" fill="#1C1618" />
<rect x="270" y="130" width="10" height="10" fill="#1C1618" />
<rect x="90" y="140" width="20" height="10" fill="#1C1618" />
<rect x="120" y="140" width="30" height="10" fill="#1C1618" />
<rect x="160" y="140" width="10" height="10" fill="#1C1618" />
<rect x="190" y="140" width="20" height="10" fill="#1C1618" />
<rect x="260" y="140" width="10" height="10" fill="#1C1618" />
<rect x="90" y="150" width="10" height="30" fill="#1C1618" />
<rect x="100" y="150" width="10" height="20" fill="#FBF236" />
<rect x="110" y="150" width="10" height="10" fill="#47416B" />
<rect x="120" y="150" width="10" height="20" fill="#FBF236" />
<rect x="130" y="150" width="10" height="10" fill="#47416B" />
<rect x="140" y="150" width="10" height="20" fill="#FBF236" />
<rect x="150" y="150" width="10" height="10" fill="#47416B" />
<rect x="160" y="150" width="10" height="20" fill="#FBF236" />
<rect x="180" y="150" width="10" height="20" fill="#D88038" />
<rect x="190" y="150" width="10" height="10" fill="#47416B" />
<rect x="200" y="150" width="10" height="20" fill="#D88038" />
<rect x="110" y="160" width="10" height="10" fill="#FBF236" />
<rect x="130" y="160" width="10" height="10" fill="#FBF236" />
<rect x="150" y="160" width="10" height="10" fill="#FBF236" />
<rect x="190" y="160" width="10" height="10" fill="#D88038" />
<rect x="80" y="170" width="10" height="10" fill="#000000" />
<rect x="100" y="170" width="10" height="10" fill="#000000" />
<rect x="110" y="170" width="10" height="10" fill="#1C1618" />
<rect x="120" y="170" width="10" height="10" fill="#000000" />
<rect x="130" y="170" width="10" height="10" fill="#1C1618" />
<rect x="140" y="170" width="10" height="10" fill="#000000" />
<rect x="150" y="170" width="10" height="10" fill="#1C1618" />
<rect x="160" y="170" width="10" height="10" fill="#000000" />
<rect x="180" y="170" width="20" height="10" fill="#1C1618" />
<rect x="200" y="170" width="10" height="10" fill="#000000" />
<rect x="220" y="170" width="10" height="10" fill="#000000" />
<rect x="70" y="180" width="10" height="10" fill="#000000" />
<rect x="80" y="180" width="30" height="10" fill="#4E282E" />
<rect x="110" y="180" width="50" height="10" fill="#6C8C50" />
<rect x="160" y="180" width="10" height="20" fill="#4E282E" />
<rect x="170" y="180" width="10" height="10" fill="#6C8C50" />
<rect x="180" y="180" width="10" height="10" fill="#000000" />
<rect x="190" y="180" width="10" height="20" fill="#6C8C50" />
<rect x="200" y="180" width="30" height="10" fill="#4E282E" />
<rect x="230" y="180" width="10" height="10" fill="#000000" />
<rect x="70" y="190" width="10" height="10" fill="#1C1618" />
<rect x="80" y="190" width="10" height="10" fill="#6C8C50" />
<rect x="90" y="190" width="10" height="10" fill="#4E282E" />
<rect x="100" y="190" width="50" height="10" fill="#6C8C50" />
<rect x="150" y="190" width="10" height="10" fill="#4E282E" />
<rect x="170" y="190" width="10" height="10" fill="#4E282E" />
<rect x="180" y="190" width="10" height="10" fill="#1C1618" />
<rect x="200" y="190" width="10" height="10" fill="#6C8C50" />
<rect x="210" y="190" width="10" height="10" fill="#4E282E" />
<rect x="220" y="190" width="10" height="10" fill="#6C8C50" />
<rect x="230" y="190" width="10" height="10" fill="#1C1618" />
<rect x="80" y="200" width="10" height="10" fill="#000000" />
<rect x="90" y="200" width="10" height="10" fill="#1C1618" />
<rect x="100" y="200" width="10" height="10" fill="#000000" />
<rect x="110" y="200" width="10" height="10" fill="#1C1618" />
<rect x="120" y="200" width="10" height="10" fill="#000000" />
<rect x="130" y="200" width="10" height="10" fill="#1C1618" />
<rect x="140" y="200" width="10" height="10" fill="#000000" />
<rect x="150" y="200" width="10" height="10" fill="#1C1618" />
<rect x="160" y="200" width="10" height="10" fill="#000000" />
<rect x="170" y="200" width="10" height="10" fill="#1C1618" />
<rect x="180" y="200" width="10" height="10" fill="#000000" />
<rect x="190" y="200" width="10" height="10" fill="#1C1618" />
<rect x="200" y="200" width="10" height="10" fill="#000000" />
<rect x="210" y="200" width="10" height="10" fill="#1C1618" />
<rect x="220" y="200" width="10" height="10" fill="#000000" />
</svg>